<?xml version="1.0" standalone="no"?>
<!DOCTYPE svg PUBLIC "-//W3C//DTD SVG 20010904//EN"
 "http://www.w3.org/TR/2001/REC-SVG-20010904/DTD/svg10.dtd">
<svg version="1.0" xmlns="http://www.w3.org/2000/svg"
 width="700.000000pt" height="700.000000pt" viewBox="0 0 700.000000 700.000000"
 preserveAspectRatio="xMidYMid meet">
<metadata>
Created by potrace 1.14, written by Peter Selinger 2001-2017
</metadata>
<g transform="translate(0.000000,700.000000) scale(0.100000,-0.100000)"
fill="#000000" stroke="none">
<path d="M0 3500 l0 -3500 3500 0 3500 0 0 3500 0 3500 -3500 0 -3500 0 0
-3500z m3650 1927 c53 -26 102 -69 275 -239 l210 -206 295 -4 c319 -5 353 -10
430 -63 50 -35 87 -89 113 -167 19 -58 20 -83 19 -342 l-2 -279 203 -206 c173
-176 207 -216 237 -276 48 -98 48 -174 1 -270 -29 -58 -66 -101 -238 -276
l-203 -206 2 -289 c1 -269 0 -293 -19 -352 -38 -113 -97 -175 -200 -210 -39
-13 -106 -16 -353 -20 l-305 -4 -210 -207 c-178 -176 -220 -212 -279 -241 -97
-48 -173 -48 -271 0 -60 30 -100 64 -280 241 l-210 207 -295 4 c-319 5 -353
10 -430 63 -50 35 -87 89 -113 167 -19 59 -21 82 -19 342 l2 279 -203 206
c-173 176 -207 216 -237 276 -48 98 -48 174 -1 270 29 58 66 101 238 275 l203
207 -2 289 c-1 270 0 293 19 352 38 113 97 175 200 210 39 13 106 16 353 20
l305 4 205 202 c113 111 227 215 254 231 107 63 197 66 306 12z"/>
<path d="M3400 5384 c-40 -20 -106 -78 -245 -216 l-190 -188 106 0 c86 0 109
-3 120 -16 11 -14 10 -18 -6 -30 -14 -10 -54 -14 -149 -14 l-131 0 -96 -96
c-68 -68 -102 -95 -113 -91 -30 12 -16 42 56 114 l72 73 -265 0 c-312 0 -346
-6 -413 -74 -73 -73 -79 -101 -83 -416 l-4 -275 83 83 c84 82 110 97 122 65 5
-12 -21 -45 -99 -123 l-105 -105 0 -585 0 -585 413 -413 412 -412 140 0 c77 0
146 -4 153 -9 8 -5 12 -17 10 -27 -3 -17 -16 -20 -121 -24 l-119 -5 189 -185
c205 -202 247 -231 345 -238 99 -7 143 22 363 240 l190 188 -116 0 c-95 0
-119 3 -130 16 -11 14 -10 18 6 30 14 10 55 14 160 14 l140 0 90 90 c61 61 96
90 109 88 37 -6 27 -29 -45 -103 l-72 -75 265 0 c309 0 345 7 414 75 71 72 77
101 81 415 l4 275 -88 -87 c-58 -58 -96 -88 -111 -88 -43 0 -22 36 88 145
l110 110 0 585 0 585 -413 413 -412 412 -145 0 c-80 0 -151 4 -158 9 -8 5 -12
17 -10 27 3 17 16 20 126 24 l123 5 -188 186 c-208 205 -246 231 -348 237 -50
3 -69 -1 -115 -24z m1360 -1754 c0 -433 0 -440 -20 -440 -19 0 -20 -7 -20
-110 l0 -110 -1220 0 -1220 0 0 110 c0 103 -1 110 -20 110 -20 0 -20 7 -20
440 l0 440 1260 0 1260 0 0 -440z"/>
<path d="M2310 3635 l0 -365 1190 0 1190 0 0 365 0 365 -1190 0 -1190 0 0
-365z m306 69 l70 -142 70 142 c66 136 90 165 114 139 7 -7 18 -106 35 -335
l6 -78 -29 0 -30 0 -7 150 c-4 83 -11 150 -15 150 -4 0 -33 -54 -64 -120 -50
-105 -60 -120 -81 -120 -18 0 -28 8 -38 33 -8 17 -34 74 -58 126 -49 106 -56
104 -58 -19 -1 -36 -4 -95 -8 -132 -6 -66 -7 -68 -33 -68 -26 0 -27 2 -24 43
2 23 8 114 15 202 6 88 13 164 16 168 3 4 15 7 26 5 17 -2 38 -35 93 -144z
m591 70 c31 -68 133 -329 133 -341 0 -2 -14 -3 -31 -1 -27 3 -34 9 -48 48
l-17 45 -96 3 -97 3 -18 -51 c-15 -44 -21 -50 -45 -50 -16 0 -28 5 -28 11 0
17 138 359 155 386 29 44 53 30 92 -53z m251 -111 l2 -183 95 0 c95 0 95 0 95
-25 l0 -25 -125 0 -125 0 0 211 0 210 28 -3 27 -3 3 -182z m312 2 l0 -185 95
0 c95 0 95 0 95 -25 l0 -25 -125 0 -125 0 0 203 c0 112 3 207 7 210 3 4 17 7
30 7 l23 0 0 -185z m488 158 c3 -22 1 -23 -77 -23 l-81 0 0 -50 c0 -27 0 -53
-1 -57 0 -5 17 -11 39 -15 86 -15 132 -62 132 -135 0 -41 -35 -92 -75 -109
-40 -17 -110 -18 -152 -4 -24 9 -29 15 -25 35 3 21 7 23 29 14 75 -28 163 4
163 61 0 60 -29 84 -118 96 l-52 7 6 91 c3 50 7 97 10 104 3 9 28 12 101 10
93 -3 98 -4 101 -25z m280 -186 l2 -207 -30 0 -30 0 0 165 c0 91 -2 165 -5
165 -2 0 -19 -9 -37 -20 -41 -25 -54 -25 -61 0 -4 15 6 25 47 48 28 17 58 37
65 46 8 9 21 15 30 14 14 -3 16 -30 19 -211z"/>
<path d="M3106 3681 c-20 -50 -36 -93 -36 -96 0 -3 34 -5 75 -5 41 0 75 3 75
8 0 13 -61 166 -69 175 -5 5 -25 -32 -45 -82z"/>
<path d="M4288 4823 c85 -91 447 -453 590 -588 l63 -60 -4 265 c-4 303 -10
334 -81 405 -69 68 -106 75 -403 75 l-255 0 90 -97z"/>
<path d="M4990 3510 l0 -535 183 185 c213 215 242 260 235 358 -7 100 -34 140
-235 342 l-183 185 0 -535z"/>
<path d="M1824 3838 c-210 -213 -239 -258 -232 -356 7 -99 35 -140 235 -342
l183 -185 0 533 c0 292 -1 532 -3 532 -2 0 -85 -82 -183 -182z"/>
<path d="M2062 2559 c5 -302 11 -333 82 -404 69 -69 108 -76 406 -73 l255 3
-295 299 c-162 164 -330 330 -373 369 l-79 71 4 -265z"/>
</g>
</svg>
